<svg width="250" height="90" viewBox="0 0 250 90" fill="none" xmlns="http://www.w3.org/2000/svg">
<g clip-path="url(#clip0_29_223)">
<path d="M71.3073 26.25H56.0625V62.7083L71.3073 26.25Z" fill="#E6E6E6"/>
<path d="M82.0342 26.25H97.2591V62.7083L82.0342 26.25Z" fill="#E6E6E6"/>
<path d="M76.6694 39.6875L86.3724 62.7086H80.0063L77.1064 55.3792H70.0054L76.6694 39.6875Z" fill="#E6E6E6"/>
<path d="M122.129 49.4343L123.927 54.5887C123.986 54.7178 124.075 54.7774 124.234 54.7774H127.691C127.879 54.7774 127.909 54.688 127.879 54.4993L120.739 34.6662C120.709 34.5073 120.679 34.4775 120.52 34.4775H116.23C116.11 34.4775 116.041 34.5669 116.041 34.696C115.981 35.7388 115.892 36.0566 115.763 36.3645L109.397 54.4695C109.367 54.688 109.437 54.7774 109.615 54.7774H112.704C112.893 54.7774 112.982 54.7178 113.052 54.5291L114.75 49.4343H122.129ZM115.733 46.0675C116.667 43.247 117.898 39.632 118.395 37.5662H118.424C119.04 39.7313 120.49 44.0217 121.146 46.0675H115.733Z" fill="#E6E6E6"/>
<path d="M137.059 55.0843C138.916 55.0843 140.892 54.7467 142.898 53.8826C143.057 53.823 143.087 53.7535 143.087 53.6046C143.028 53.0484 142.958 52.244 142.958 51.6282V32.9571C142.958 32.8379 142.958 32.7783 142.809 32.7783H139.442C139.313 32.7783 139.254 32.8379 139.254 32.9968V39.3231C138.727 39.2636 138.36 39.2338 137.923 39.2338C132.49 39.2338 129.153 42.819 129.153 47.2981C129.153 52.4922 132.58 55.0843 137.059 55.0843ZM139.254 51.6282C138.697 51.807 138.082 51.8765 137.456 51.8765C134.993 51.8765 132.977 50.4861 132.977 47.1094C132.977 44.12 135.053 42.3522 137.804 42.3522C138.36 42.3522 138.846 42.4118 139.254 42.5707V51.6282Z" fill="#E6E6E6"/>
<path d="M153.827 39.2334C149.189 39.2334 146.319 42.7889 146.319 47.1786C146.319 51.1015 148.603 55.084 153.757 55.084C158.117 55.084 161.176 51.8761 161.176 47.0792C161.176 42.8484 158.584 39.2334 153.827 39.2334ZM153.638 42.3519C156.26 42.3519 157.373 44.6063 157.373 47.1786C157.373 50.3566 155.734 51.9357 153.827 51.9357C151.473 51.9357 150.083 49.9594 150.083 47.109C150.083 44.1793 151.563 42.3519 153.638 42.3519Z" fill="#E6E6E6"/>
<path d="M164.657 32.7783C164.528 32.7783 164.439 32.8379 164.439 32.9968V54.1309C164.439 54.2203 164.528 54.3792 164.657 54.409C166.137 54.8659 167.687 55.0843 169.286 55.0843C173.864 55.0843 178.313 52.244 178.313 46.5234C178.313 42.382 175.473 39.2338 171.024 39.2338C170.001 39.2338 169.047 39.3927 168.213 39.6707L168.173 33.0266C168.173 32.8081 168.114 32.7783 167.895 32.7783H164.657ZM174.509 46.9008C174.509 50.3272 172.166 51.9361 169.633 51.9361C169.107 51.9361 168.64 51.9063 168.213 51.7772V42.7594C168.7 42.5707 169.286 42.4118 170.368 42.4118C172.811 42.4118 174.509 43.9611 174.509 46.9008Z" fill="#E6E6E6"/>
<path d="M190.879 48.0128C192.388 48.0128 193.63 47.983 194.057 47.8837C194.216 47.8539 194.275 47.7943 194.305 47.6652C194.394 47.3275 194.434 46.6224 194.434 45.7584C194.434 42.8187 192.666 39.2334 188.098 39.2334C183.43 39.2334 180.838 43.0371 180.838 47.3275C180.838 51.1313 182.844 55.084 188.465 55.084C190.571 55.084 191.931 54.7463 193.103 54.1902C193.222 54.1306 193.282 54.0313 193.282 53.8525V51.2802C193.282 51.1313 193.193 51.1015 193.103 51.1611C191.931 51.6576 190.66 51.9059 189.27 51.9059C186.121 51.9059 184.691 50.1679 184.602 48.0128H190.879ZM184.602 45.3512C184.85 43.8416 185.804 42.2029 187.939 42.2029C190.293 42.2029 190.908 44.1793 190.908 45.0731C190.908 45.1029 190.908 45.232 190.908 45.3214C190.779 45.3512 190.382 45.3512 189.21 45.3512H184.602Z" fill="#E6E6E6"/>
</g>
<defs>
<clipPath id="clip0_29_223">
<rect width="138.542" height="50" fill="white" transform="translate(56.0625 20)"/>
</clipPath>
</defs>
</svg>
