<svg width="250" height="90" viewBox="0 0 250 90" fill="none" xmlns="http://www.w3.org/2000/svg">
<g clip-path="url(#clip0_29_219)">
<path fill-rule="evenodd" clip-rule="evenodd" d="M138.472 59.3812C131.843 64.2671 122.235 66.8739 113.963 66.8739C102.364 66.8739 91.9218 62.5838 84.022 55.4486C83.4013 54.8876 83.9574 54.1229 84.7022 54.5598C93.2277 59.5202 103.769 62.5044 114.658 62.5044C122.002 62.5044 130.08 60.985 137.508 57.832C138.631 57.3553 139.569 58.5669 138.472 59.3812Z" fill="#E6E6E6"/>
<path fill-rule="evenodd" clip-rule="evenodd" d="M141.228 56.2282C140.383 55.1458 135.627 55.7168 133.492 55.97C132.841 56.0495 132.742 55.4834 133.328 55.0763C137.116 52.4099 143.333 53.1795 144.058 54.0733C144.783 54.972 143.869 61.2035 140.309 64.1777C139.763 64.6345 139.241 64.3912 139.485 63.7855C140.284 61.7894 142.077 57.3156 141.228 56.2282Z" fill="#E6E6E6"/>
<path fill-rule="evenodd" clip-rule="evenodd" d="M133.643 36.2538V33.6619C133.643 33.2696 133.941 33.0065 134.298 33.0065H145.902C146.274 33.0065 146.572 33.2746 146.572 33.6619V35.8814C146.567 36.2538 146.255 36.7404 145.699 37.51L139.685 46.0951C141.92 46.0405 144.278 46.3731 146.304 47.5152C146.761 47.7733 146.885 48.1507 146.92 48.5231V51.2888C146.92 51.6662 146.503 52.1081 146.066 51.8797C142.496 50.0077 137.754 49.8042 133.807 51.8995C133.404 52.118 132.982 51.6811 132.982 51.3037V48.677C132.982 48.255 132.987 47.535 133.409 46.8945L140.376 36.9042H134.313C133.941 36.9042 133.643 36.6411 133.643 36.2538Z" fill="#E6E6E6"/>
<path fill-rule="evenodd" clip-rule="evenodd" d="M91.3132 52.4259H87.7829C87.4452 52.4011 87.1771 52.1478 87.1523 51.8251V33.7066C87.1523 33.3441 87.4552 33.0562 87.8325 33.0562H91.1245C91.4672 33.071 91.7402 33.3342 91.7651 33.6619V36.0304H91.8296C92.6886 33.7414 94.3024 32.6738 96.4772 32.6738C98.6867 32.6738 100.067 33.7414 101.06 36.0304C101.914 33.7414 103.856 32.6738 105.936 32.6738C107.416 32.6738 109.034 33.2846 110.023 34.655C111.14 36.1793 110.911 38.3939 110.911 40.3353L110.906 51.7705C110.906 52.1329 110.604 52.4259 110.226 52.4259H106.701C106.348 52.4011 106.065 52.118 106.065 51.7705V42.1675C106.065 41.4029 106.135 39.4962 105.966 38.7712C105.703 37.5547 104.913 37.2121 103.89 37.2121C103.036 37.2121 102.143 37.7831 101.78 38.6968C101.418 39.6104 101.452 41.1397 101.452 42.1675V51.7705C101.452 52.1329 101.15 52.4259 100.772 52.4259H97.2468C96.8893 52.4011 96.6112 52.118 96.6112 51.7705L96.6063 42.1675C96.6063 40.1466 96.9389 37.1724 94.4315 37.1724C91.8942 37.1724 91.9935 40.0722 91.9935 42.1675V51.7705C91.9935 52.1329 91.6906 52.4259 91.3132 52.4259Z" fill="#E6E6E6"/>
<path fill-rule="evenodd" clip-rule="evenodd" d="M156.563 32.6738C161.801 32.6738 164.636 37.1724 164.636 42.8925C164.636 48.4189 161.503 52.8033 156.563 52.8033C151.418 52.8033 148.618 48.3047 148.618 42.6988C148.618 37.0582 151.453 32.6738 156.563 32.6738ZM156.592 36.373C153.99 36.373 153.827 39.9182 153.827 42.1278C153.827 44.3423 153.792 49.0693 156.563 49.0693C159.298 49.0693 159.428 45.256 159.428 42.9322C159.428 41.4029 159.363 39.5756 158.901 38.1258C158.504 36.8646 157.714 36.373 156.592 36.373Z" fill="#E6E6E6"/>
<path fill-rule="evenodd" clip-rule="evenodd" d="M171.429 52.4259H167.913C167.561 52.4011 167.278 52.118 167.278 51.7705L167.273 33.647C167.303 33.3143 167.596 33.0562 167.953 33.0562H171.225C171.533 33.071 171.786 33.2796 171.856 33.5626V36.3333H171.92C172.909 33.8556 174.294 32.6738 176.732 32.6738C178.316 32.6738 179.86 33.2448 180.853 34.8089C181.777 36.2588 181.777 38.6968 181.777 40.4495V51.8549C181.737 52.1727 181.444 52.4259 181.096 52.4259H177.556C177.233 52.4011 176.965 52.1627 176.93 51.8549V42.0136C176.93 40.0324 177.159 37.1327 174.721 37.1327C173.862 37.1327 173.072 37.7087 172.68 38.5826C172.184 39.6898 172.119 40.7921 172.119 42.0136V51.7705C172.114 52.1329 171.806 52.4259 171.429 52.4259Z" fill="#E6E6E6"/>
<path fill-rule="evenodd" clip-rule="evenodd" d="M124.392 43.7713C124.392 45.1467 124.427 46.2937 123.732 47.5152C123.171 48.5082 122.277 49.119 121.289 49.119C119.933 49.119 119.139 48.0862 119.139 46.5618C119.139 43.5528 121.835 43.0066 124.392 43.0066V43.7713ZM127.952 52.3762C127.719 52.5848 127.381 52.5997 127.118 52.4606C125.946 51.4874 125.733 51.0356 125.092 50.1071C123.156 52.0833 121.781 52.6741 119.273 52.6741C116.299 52.6741 113.99 50.8419 113.99 47.1726C113.99 44.3076 115.539 42.3562 117.754 41.4028C119.67 40.5587 122.347 40.4098 124.392 40.1764V39.7196C124.392 38.8804 124.457 37.8874 123.96 37.1624C123.533 36.512 122.709 36.2439 121.979 36.2439C120.634 36.2439 119.437 36.934 119.144 38.3641C119.084 38.6818 118.851 38.9947 118.528 39.0095L115.107 38.6421C114.819 38.5776 114.496 38.3442 114.581 37.9023C115.365 33.7513 119.119 32.5 122.476 32.5C124.194 32.5 126.438 32.9568 127.794 34.2577C129.512 35.8615 129.348 38.0016 129.348 40.3303V45.8319C129.348 47.4854 130.033 48.2103 130.678 49.1041C130.902 49.4218 130.952 49.8042 130.664 50.0425C129.944 50.6433 128.662 51.7605 127.957 52.3861L127.952 52.3762Z" fill="#E6E6E6"/>
<path fill-rule="evenodd" clip-rule="evenodd" d="M78.1104 43.7713C78.1104 45.1467 78.1451 46.2937 77.45 47.5151C76.8889 48.5082 76.0001 49.1189 75.007 49.1189C73.6515 49.1189 72.862 48.0862 72.862 46.5618C72.862 43.5528 75.5582 43.0066 78.1104 43.0066V43.7713ZM81.6705 52.3762C81.4371 52.5847 81.0995 52.5996 80.8363 52.4606C79.6645 51.4874 79.456 51.0356 78.8105 50.107C76.874 52.0832 75.5036 52.6741 72.9911 52.6741C70.0218 52.6741 67.708 50.8419 67.708 47.1725C67.708 44.3075 69.2622 42.3562 71.4717 41.4028C73.3883 40.5587 76.0647 40.4098 78.1104 40.1764V39.7196C78.1104 38.8804 78.1749 37.8874 77.6833 37.1624C77.2514 36.512 76.4271 36.2439 75.7022 36.2439C74.3566 36.2439 73.155 36.934 72.862 38.364C72.8024 38.6818 72.5691 38.9946 72.2513 39.0095L68.8252 38.6421C68.5372 38.5776 68.2194 38.3442 68.2989 37.9023C69.0884 33.7513 72.8372 32.5 76.1938 32.5C77.9118 32.5 80.1561 32.9568 81.5116 34.2577C83.2296 35.8615 83.0658 38.0016 83.0658 40.3303V45.8319C83.0658 47.4854 83.751 48.2103 84.3965 49.1041C84.6249 49.4218 84.6745 49.8042 84.3865 50.0425C83.6666 50.6433 82.3855 51.7605 81.6804 52.3861L81.6705 52.3762Z" fill="#E6E6E6"/>
</g>
<defs>
<clipPath id="clip0_29_219">
<rect width="114.583" height="50" fill="white" transform="translate(67.708 20)"/>
</clipPath>
</defs>
</svg>
