<svg width="250" height="90" viewBox="0 0 250 90" fill="none" xmlns="http://www.w3.org/2000/svg">
<g clip-path="url(#clip0_29_209)">
<path fill-rule="evenodd" clip-rule="evenodd" d="M157.32 41.4581C157.709 42.1306 157.837 42.8958 157.879 43.756L157.934 44.9025V52.92L157.991 54.0678C158.104 55.9422 159.486 57.3282 161.375 57.4461L162.517 57.5026V44.9025L162.574 43.756C162.621 42.9054 162.747 42.1258 163.143 41.4484C163.546 40.7537 164.125 40.1773 164.822 39.7771C165.518 39.3769 166.308 39.167 167.111 39.1684C167.914 39.1699 168.703 39.3827 169.398 39.7854C170.093 40.1881 170.67 40.7667 171.071 41.4629C171.461 42.1354 171.582 42.915 171.629 43.756L171.686 44.8989V52.92L171.742 54.0678C171.86 55.9518 173.232 57.3378 175.127 57.4461L176.268 57.5026V43.756C176.268 41.3252 175.303 38.9939 173.585 37.2748C171.866 35.5556 169.535 34.5893 167.104 34.5883C165.803 34.587 164.517 34.8633 163.331 35.3987C162.146 35.9342 161.088 36.7166 160.229 37.6936C159.369 36.717 158.311 35.9348 157.126 35.3992C155.94 34.8635 154.654 34.5867 153.353 34.5871C151.45 34.5871 149.684 35.1646 148.221 36.162C147.328 35.1658 145.331 34.5871 144.184 34.5871V57.5026L145.331 57.4461C147.248 57.3197 148.634 55.9711 148.709 54.0678L148.77 52.92V44.9025L148.827 43.756C148.875 42.8909 148.995 42.1306 149.386 41.4532C149.79 40.7589 150.369 40.1826 151.065 39.782C151.761 39.3813 152.55 39.1702 153.353 39.1698C154.157 39.1699 154.946 39.3814 155.643 39.7831C156.339 40.1847 156.917 40.7623 157.32 41.4581ZM78.8739 57.4473L80.0204 57.5026H97.2067L97.1502 56.3597C96.995 54.4756 95.6607 53.0993 93.7707 52.9765L92.6241 52.92H82.3135L96.0602 39.1686L96.0036 38.0268C95.9146 36.1235 94.5238 34.7484 92.6241 34.6437L91.4776 34.592L74.2913 34.5871L74.3478 35.7337C74.4982 37.5997 75.8517 39.0049 77.7261 39.1132L78.8739 39.1698H89.1844L75.4378 52.9212L75.4944 54.0678C75.6075 55.9566 76.9706 57.3246 78.8739 57.4461V57.4473ZM139.686 37.9414C140.75 39.0053 141.594 40.2684 142.17 41.6587C142.746 43.0489 143.042 44.5389 143.042 46.0437C143.042 47.5485 142.746 49.0385 142.17 50.4287C141.594 51.8189 140.75 53.082 139.686 54.146C137.536 56.2942 134.621 57.5009 131.582 57.5009C128.542 57.5009 125.628 56.2942 123.478 54.146C119.003 49.6716 119.003 42.4157 123.478 37.9414C124.541 36.8778 125.803 36.0341 127.192 35.4584C128.582 34.8826 130.071 34.5862 131.574 34.5859C133.081 34.5849 134.572 34.8808 135.964 35.4568C137.356 36.0328 138.621 36.8775 139.686 37.9426V37.9414ZM136.443 41.1862C137.732 42.4759 138.456 44.2246 138.456 46.0479C138.456 47.8712 137.732 49.6199 136.443 50.9096C135.154 52.1984 133.405 52.9223 131.582 52.9223C129.758 52.9223 128.01 52.1984 126.72 50.9096C125.431 49.6199 124.707 47.8712 124.707 46.0479C124.707 44.2246 125.431 42.4759 126.72 41.1862C128.01 39.8974 129.758 39.1734 131.582 39.1734C133.405 39.1734 135.154 39.8974 136.443 41.1862ZM107.527 34.5859C109.031 34.5863 110.52 34.883 111.909 35.4589C113.298 36.0348 114.561 36.8788 115.624 37.9426C120.099 42.4157 120.099 49.6728 115.624 54.146C113.474 56.2942 110.559 57.5009 107.52 57.5009C104.48 57.5009 101.566 56.2942 99.4156 54.146C94.9413 49.6716 94.9413 42.4157 99.4156 37.9414C100.479 36.8778 101.741 36.0341 103.13 35.4584C104.52 34.8826 106.009 34.5862 107.512 34.5859H107.527ZM112.381 41.1837C113.671 42.4735 114.395 44.2225 114.395 46.0461C114.395 47.8697 113.671 49.6186 112.381 50.9084C111.092 52.1972 109.343 52.9211 107.52 52.9211C105.696 52.9211 103.948 52.1972 102.658 50.9084C101.369 49.6187 100.645 47.87 100.645 46.0467C100.645 44.2234 101.369 42.4747 102.658 41.1849C103.948 39.8962 105.696 39.1722 107.52 39.1722C109.343 39.1722 111.092 39.8962 112.381 41.1849V41.1837Z" fill="#E6E6E6"/>
</g>
<defs>
<clipPath id="clip0_29_209">
<rect width="102.083" height="50" fill="white" transform="translate(74.2915 20)"/>
</clipPath>
</defs>
</svg>
